<svg id="Layer_1" data-name="Layer 1" xmlns="http://www.w3.org/2000/svg" viewBox="0 0 152.13 234.57"><defs><style>.cls-1{fill:#fff;}.cls-2{fill:#cf1800;}.cls-3{fill:none;stroke:#000;stroke-linecap:round;stroke-miterlimit:10;stroke-width:3px;}</style></defs><ellipse cx="399" cy="235.5" rx="40" ry="36.5" transform="translate(-374.96 -88.95) rotate(-11.02)"/><path class="cls-1" d="M411.59,403.06c-32.71-3.73-60.53-32-67.7-68.87-8.8-45.2,16-88.18,55.21-95.82a63.75,63.75,0,0,1,12.16-1.17c35.62,0,67.14,29.14,75,69.28,3.64,18.74,1.58,38.15-5.82,54.67-7.22,16.11-19.18,28.84-33.71,35.91-2.8-3.27-11.23-34.77-18-60.2-4.22-15.74-8.58-32-12.17-44.12-6.22-20.91-7.68-20.91-8.86-20.91h-.1l-.16,0c-3.6.7-2.87,16.91,1.35,68.61C410.86,366.81,413.52,399.48,411.59,403.06Z" transform="translate(-337.31 -169.52)"/><path class="cls-1" d="M411.27,238.2c16.73,0,33.38,6.79,46.88,19.13,13.71,12.52,23.33,30.05,27.08,49.34,3.61,18.54,1.57,37.74-5.75,54.07-7,15.6-18.47,28-32.43,35-3.1-5.61-11-35.15-17.44-59.16-4.21-15.75-8.58-32-12.18-44.14-6.11-20.58-7.71-21.63-9.81-21.63a2.28,2.28,0,0,0-.45,0c-2.43.47-3.82,2.3-2.79,23.65.62,12.7,2,29.64,3.33,46,1.19,14.6,2.43,29.7,3.06,41.24.76,13.73.43,18.52.09,20.18-31.92-4.06-59-31.84-66-68-8.69-44.66,15.72-87.11,54.42-94.65a63.4,63.4,0,0,1,12-1.15h0m0-2a64.92,64.92,0,0,0-12.36,1.19c-39.85,7.76-64.92,51.18-56,97,7.45,38.31,36.32,66.15,68.87,69.71h.05c6.24,0-10.78-130-4.28-131.26h.07c5.59,0,33.76,125.35,39,125.35a.31.31,0,0,0,.13,0c30.56-14.6,48.16-52.34,40.47-91.86-8-41.06-40.57-70.1-75.93-70.09Z" transform="translate(-337.31 -169.52)"/><path class="cls-2" d="M412,401.22c-32.71-3.72-60.53-32-67.7-68.87a94.08,94.08,0,0,1-1.17-28.87A25,25,0,1,0,361,260c10.19-12.45,23.47-20.55,38.52-23.48a63.76,63.76,0,0,1,12.16-1.18c35.62,0,67.14,29.14,75,69.29a91.37,91.37,0,0,1-4.18,50.71,15,15,0,1,0-14.78,24.27,67,67,0,0,1-20.57,15.6c-2.79-3.28-11.23-34.77-18-60.2l-.82-3h.22a9.5,9.5,0,1,0-5-17.6C412.32,273.21,410,270,408.07,270H408l-.16,0c-3.6.7-2.87,16.91,1.35,68.6C411.31,365,414,397.65,412,401.22ZM382.5,331A14.5,14.5,0,1,0,397,345.5,14.51,14.51,0,0,0,382.5,331Zm71-57A20.5,20.5,0,1,0,474,294.5,20.53,20.53,0,0,0,453.5,274ZM425,245a10,10,0,1,0,10,10A10,10,0,0,0,425,245Z" transform="translate(-337.31 -169.52)"/><path class="cls-1" d="M411.71,236.36c16.73,0,33.38,6.8,46.88,19.13,13.72,12.53,23.34,30.05,27.09,49.35a90.55,90.55,0,0,1-3.56,48.66,16,16,0,1,0-16.26,26.66,66.1,66.1,0,0,1-18.36,13.77c-3.1-5.61-11-35.16-17.44-59.17l-.49-1.81A10.5,10.5,0,0,0,428.5,312a10.34,10.34,0,0,0-4.32.94C412.73,271,410.76,269,408.07,269a2.3,2.3,0,0,0-.45.05c-2.43.47-3.83,2.3-2.79,23.64.61,12.7,2,29.64,3.33,46,1.19,14.6,2.42,29.7,3.06,41.24.76,13.74.42,18.52.09,20.19-31.92-4.07-59-31.84-66-68a93.71,93.71,0,0,1-1.35-26.7,26,26,0,1,0,19.08-46.28,64.36,64.36,0,0,1,36.69-21.66,62.58,62.58,0,0,1,12-1.16M425,266a11,11,0,1,0-11-11,11,11,0,0,0,11,11m28.5,50A21.5,21.5,0,1,0,432,294.5,21.52,21.52,0,0,0,453.5,316m-71,45A15.5,15.5,0,1,0,367,345.5,15.51,15.51,0,0,0,382.5,361m29.21-126.64a64.29,64.29,0,0,0-12.36,1.2C382.92,238.76,369,248,359,261l1.05,0a24,24,0,1,1-17.57,40.35,95.83,95.83,0,0,0,.92,31.19c7.46,38.31,36.33,66.16,68.88,69.71h0c6.24,0-10.79-130-4.28-131.25h.07c2.26,0,8.24,20.59,14.89,45.07A8.5,8.5,0,1,1,428.5,331a9,9,0,0,1-1.56-.15c8.64,32.25,17.41,65.49,20.1,65.49a.32.32,0,0,0,.14,0,68.72,68.72,0,0,0,22.47-17.38,14,14,0,1,1,13.1-21.53,92.69,92.69,0,0,0,4.9-52.94c-8-41.06-40.58-70.1-75.94-70.1ZM425,264a9,9,0,1,1,9-9,9,9,0,0,1-9,9Zm28.5,50A19.5,19.5,0,1,1,473,294.5,19.5,19.5,0,0,1,453.5,314Zm-71,45A13.5,13.5,0,1,1,396,345.5,13.49,13.49,0,0,1,382.5,359Z" transform="translate(-337.31 -169.52)"/><circle class="cls-1" cx="40.19" cy="35.98" r="1.5"/><path class="cls-1" d="M377.5,205a.5.5,0,1,1-.5.5.5.5,0,0,1,.5-.5m0-2a2.5,2.5,0,1,0,2.5,2.5,2.5,2.5,0,0,0-2.5-2.5Z" transform="translate(-337.31 -169.52)"/><circle class="cls-1" cx="75.19" cy="31.98" r="1.5"/><path class="cls-1" d="M412.5,201a.5.5,0,1,1-.5.5.5.5,0,0,1,.5-.5m0-2a2.5,2.5,0,1,0,2.5,2.5,2.5,2.5,0,0,0-2.5-2.5Z" transform="translate(-337.31 -169.52)"/><path class="cls-3" d="M338.81,176.28s14,2.31,23.35,8.47,15.08,20.17,15.08,20.17" transform="translate(-337.31 -169.52)"/><path class="cls-3" d="M449.75,171s-13.91,2.92-23,9.49-14.18,20.81-14.18,20.81" transform="translate(-337.31 -169.52)"/></svg>